<?xml version="1.0" encoding="UTF-8"?> <svg xmlns="http://www.w3.org/2000/svg" width="566" height="117" viewBox="0 0 566 117" fill="none"><path d="M184.205 92.7585C183.105 92.7585 182.505 92.0585 182.705 90.8585L196.705 2.8585C196.905 1.5585 197.605 0.958496 198.805 0.958496H230.705C252.005 0.958496 263.605 12.4585 260.005 34.8585L256.105 59.2585C252.605 81.4585 237.405 92.7585 216.105 92.7585H184.205V92.7585ZM200.205 78.2585H218.305C230.605 78.2585 237.905 72.2585 239.905 59.3585L243.805 34.6585C245.905 21.4585 240.605 15.1585 228.305 15.1585H210.105L200.205 78.2585Z" fill="#1E0E00"></path><path d="M302.105 23.1585C318.005 23.1585 327.605 31.1585 324.705 49.2585L318.805 86.7585C318.605 87.7585 318.005 88.5585 317.005 88.9585C310.005 91.0585 300.105 92.7585 290.605 92.7585C275.705 92.7585 262.805 87.3585 265.405 71.3585C267.605 57.3585 280.305 50.7585 296.805 50.7585C301.005 50.7585 305.705 51.2585 309.505 51.7585L309.905 49.2585C311.405 40.1585 308.605 36.3585 299.105 36.3585C292.705 36.3585 286.505 38.0585 282.005 40.4585C281.005 41.0585 280.005 40.9585 279.505 39.9585L275.605 32.1585C275.105 31.1585 275.205 30.4585 276.005 29.9585C282.705 25.7585 291.705 23.1585 302.105 23.1585ZM292.605 79.7585C296.805 79.7585 301.905 79.0585 305.205 78.2585L307.505 63.7585C304.105 63.2585 299.205 62.7585 295.205 62.7585C285.605 62.7585 281.205 65.9585 280.405 71.2585C279.405 77.1585 284.705 79.7585 292.605 79.7585Z" fill="#1E0E00"></path><path fill-rule="evenodd" clip-rule="evenodd" d="M357.005 92.7585C348.305 92.7585 339.405 90.3585 332.205 84.3585C331.105 83.7585 331.305 82.8585 332.105 81.7585L338.305 73.3585C339.105 72.2585 339.905 72.0585 340.905 72.8585C346.005 77.0585 352.605 79.4585 359.305 79.4585C366.005 79.4585 371.605 76.8585 372.405 72.0585C373.205 66.8585 367.305 65.4585 361.605 64.4585C352.305 62.6585 336.605 58.6585 339.005 43.1585C341.205 28.8585 355.705 22.9585 369.405 22.9585C376.705 22.9585 383.905 24.7585 390.805 28.8585C391.805 29.3585 391.805 30.3585 391.005 31.4585L384.805 39.6585C384.005 40.5585 383.105 40.7585 382.105 40.3585C377.705 37.7585 372.205 36.1585 366.505 36.1585C358.905 36.1585 354.405 38.9585 353.705 43.1585C352.905 48.4585 358.505 49.7585 366.705 51.3585C376.905 53.2585 389.705 56.6585 387.405 71.3585C385.405 85.8585 372.405 92.7585 357.005 92.7585Z" fill="#1E0E00"></path><path fill-rule="evenodd" clip-rule="evenodd" d="M436.605 24.6585C452.305 24.6585 463.305 32.9585 460.005 53.6585L454.105 90.7585C453.905 92.0585 453.205 92.6585 452.005 92.6585H440.805C439.705 92.6585 438.905 91.9585 439.205 90.7585L445.005 54.0585C446.905 41.7585 442.405 38.0585 432.905 38.0585C428.305 38.0585 423.505 38.7585 420.205 40.3585L412.205 90.8585C412.005 92.1585 411.205 92.7585 410.005 92.7585H398.905C397.605 92.7585 397.105 92.0585 397.305 90.8585L411.305 2.8585C411.505 1.5585 412.305 0.958496 413.505 0.958496H424.605C425.905 0.958496 426.405 1.5585 426.205 2.8585L422.305 26.8585C426.305 25.5585 431.105 24.6585 436.605 24.6585Z" fill="#1E0E00"></path><path fill-rule="evenodd" clip-rule="evenodd" d="M468.705 91.0585L482.705 2.8585C482.905 1.7585 483.805 0.958496 484.905 0.958496H495.905C497.205 0.958496 497.705 1.5585 497.505 2.8585L483.805 91.5585C483.705 92.2585 483.105 92.8585 482.305 92.8585H470.205C469.305 92.7585 468.605 91.9585 468.705 91.0585Z" fill="#1E0E00"></path><path fill-rule="evenodd" clip-rule="evenodd" d="M550.305 26.4585C550.505 25.3585 551.205 24.6585 552.505 24.6585H563.605C564.905 24.6585 565.405 25.3585 565.205 26.4585L555.605 86.9585C552.505 106.759 541.905 116.859 522.205 116.859C511.305 116.859 504.105 114.258 498.305 108.758C497.405 107.958 497.505 107.259 498.305 106.159L505.105 98.3585C505.905 97.3585 506.905 97.0585 507.705 97.6585C512.105 100.959 517.305 103.559 524.205 103.559C533.105 103.559 539.305 99.7585 540.905 86.8585C536.605 88.1585 531.505 89.1585 526.805 89.1585C513.405 89.1585 500.705 80.6585 503.405 62.9585L509.205 26.3585C509.405 25.2585 510.305 24.5585 511.405 24.5585H522.605C523.705 24.5585 524.305 25.2585 524.105 26.3585L518.405 62.2585C516.805 72.1585 523.205 75.5585 530.905 75.5585C535.305 75.6585 539.805 74.5585 542.805 72.9585L550.305 26.4585Z" fill="#1E0E00"></path><path d="M49.5 47.1C49.5 42 45.3 37.8 40.2 37.8H9.5C4.4 37.8 0.199997 42 0.199997 47.1C0.199997 52.2 4.4 56.4 9.5 56.4H40.2C45.4 56.3 49.5 52.2 49.5 47.1ZM145.6 6.00001C142.6 2.50001 138.2 0.600006 133.4 0.600006H58.8C53.6 0.600006 49.5 4.80001 49.5 9.90001C49.5 15 53.7 19.2 58.8 19.2H103.7C108.8 19.2 113 23.4 113 28.5C113 31.7 111.4 34.5 108.9 36.2C107.4 37.2 105.7 37.8 103.8 37.8H70.8C65.7 37.8 61.5 42 61.5 47.1C61.5 52.2 65.7 56.4 70.8 56.4H112C117.1 56.4 121.3 60.6 121.3 65.7C121.3 70.5 117.6 74.5 112.8 74.9C112.5 74.9 19 74.9 19 74.9C13.9 74.9 9.7 79.1 9.7 84.2C9.7 89.3 13.9 93.5 19 93.5H31.8C34.8 93.6 37 96.4 36.3 99.3L34.7 106.2C34.1 110 35.8 113.6 39.2 115.6C40.7 116.5 42.5 117 44.2 117C46.2 117 48.2 116.4 49.8 115.2L68.7 96.9C70.9 94.7 74 93.5 77.2 93.5H121.1C130.7 93.5 140 84.7 141.3 75.1L149 20.2C149.6 15.2 148.6 9.50001 145.6 6.00001ZM37.6 9.90001C37.6 4.80001 33.3 0.600006 28.2 0.600006C23.1 0.600006 18.8 4.80001 18.8 9.90001C18.8 15 23.1 19.2 28.2 19.2C33.3 19.2 37.6 15 37.6 9.90001Z" fill="url(#paint0_linear)"></path><defs><linearGradient id="paint0_linear" x1="0.195197" y1="58.7447" x2="149.129" y2="58.7447" gradientUnits="userSpaceOnUse"><stop stop-color="#FDA948"></stop><stop offset="1" stop-color="#FD8046"></stop></linearGradient></defs></svg> 